<?xml version="1.0" encoding="UTF-8" standalone="no"?>
<!-- Created with Inkscape (http://www.inkscape.org/) -->

<svg
   width="1280"
   height="720"
   viewBox="0 0 1280 720"
   version="1.1"
   id="svg1"
   xml:space="preserve"
   inkscape:version="1.4.2 (f4327f4, 2025-05-13)"
   sodipodi:docname="snes-controller.svg"
   inkscape:export-filename="..\..\PadCast\resources\images\pressed\Y.png"
   inkscape:export-xdpi="72"
   inkscape:export-ydpi="72"
   xmlns:inkscape="http://www.inkscape.org/namespaces/inkscape"
   xmlns:sodipodi="http://sodipodi.sourceforge.net/DTD/sodipodi-0.dtd"
   xmlns="http://www.w3.org/2000/svg"
   xmlns:svg="http://www.w3.org/2000/svg"><sodipodi:namedview
     id="namedview1"
     pagecolor="#505050"
     bordercolor="#eeeeee"
     borderopacity="1"
     inkscape:showpageshadow="0"
     inkscape:pageopacity="0"
     inkscape:pagecheckerboard="true"
     inkscape:deskcolor="#505050"
     inkscape:document-units="px"
     inkscape:zoom="1.4142136"
     inkscape:cx="543.7651"
     inkscape:cy="304.05591"
     inkscape:window-width="2560"
     inkscape:window-height="1369"
     inkscape:window-x="-8"
     inkscape:window-y="-8"
     inkscape:window-maximized="1"
     inkscape:current-layer="layer5"
     showgrid="false"
     showguides="true"
     inkscape:export-bgcolor="#ffffff00"><inkscape:grid
       id="grid36"
       units="px"
       originx="0"
       originy="0"
       spacingx="1"
       spacingy="1"
       empcolor="#0099e5"
       empopacity="0.30196078"
       color="#0099e5"
       opacity="0.14901961"
       empspacing="5"
       enabled="true"
       visible="false" /></sodipodi:namedview><defs
     id="defs1" /><g
     inkscape:label="Unpressed"
     inkscape:groupmode="layer"
     id="layer1"
     style="display:none"><g
       inkscape:groupmode="layer"
       id="layer2"
       inkscape:label="D-Pad"><path
         style="fill:#323232;fill-opacity:1"
         d="m 372.5939,430.74696 c -7.5181,-2.18497 -9.43166,-7.89803 -9.43933,-28.18172 -0.006,-14.75 -0.006,-14.75 -16.75557,-14.75374 -25.35499,-0.006 -26.25,-0.92611 -26.25,-26.99626 0,-25.88459 0.37161,-26.27122 25.95071,-27 17.54929,-0.5 17.54929,-0.5 18.04929,-18 0.72499,-25.37485 0.32765,-25 26.5,-25 28.17763,0 26.93816,-1.81641 27.46552,40.25 0.0345,2.75 0.0345,2.75 16.13335,2.75 25.75536,0 26.40113,0.66042 26.40113,27 0,26.34818 0.0745,26.2693 -25.5,27 -17.5,0.5 -17.5,0.5 -18,18 -0.7277,25.46939 -1.32203,26.05673 -26.21788,25.90981 -8.40517,-0.0496 -16.65692,-0.48974 -18.33722,-0.97809 z"
         id="path33"
         inkscape:label="D-pad" /></g><g
       inkscape:groupmode="layer"
       id="layer4"
       inkscape:label="Buttons"><path
         style="fill:#323232;fill-opacity:1"
         d="m 852.5546,446.46239 c -33.5728,-11.02251 -26.582,-59.11272 8.5944,-59.12112 38.6866,-0.009 40.2209,57.20836 1.6094,60.02042 -3.6391,0.26504 -7.7649,-0.0986 -10.2038,-0.8993 z"
         id="path19"
         inkscape:label="B-out" /><path
         style="fill:#323232;fill-opacity:1"
         d="m 922.149,389.30237 c -17.0559,-4.69195 -26.1194,-27.17324 -17.408,-43.17897 15.2512,-28.02137 57.1067,-16.9756 56.808,14.99174 -0.1838,19.66563 -19.6786,33.61246 -39.4,28.18723 z"
         id="path21"
         inkscape:label="A-out" /><path
         style="fill:#323232;fill-opacity:1"
         d="m 777.6342,387.71843 c -33.7972,-17.78245 -13.6103,-67.14282 22.8534,-55.88034 25.0779,7.74579 27.2661,44.30824 3.3448,55.88835 -6.1754,2.98945 -20.5096,2.98507 -26.1982,-0.008 z"
         id="path24"
         inkscape:label="Y-out" /><path
         style="fill:#323232;fill-opacity:1"
         d="m 852.0906,333.92574 c -33.1637,-10.82451 -26.2278,-59.67444 8.4514,-59.52415 31.8839,0.13818 41.7031,40.79414 13.8018,57.14538 -4.7937,2.80927 -16.9523,4.10898 -22.2532,2.37877 z"
         id="path25"
         inkscape:label="X-out" /><path
         style="fill:#323232;fill-opacity:1"
         d="m 632.31582,398.5235 c 1.99248,-3.59287 35.76603,-36.68919 38.96,-37.8155 11.08988,-3.91071 21.20668,10.0022 15.62788,16.83973 -1.52668,1.87114 -22.33003,23.37418 -32.58394,34.12002 -12.60444,13.20914 -27.15856,-3.84939 -22.00394,-13.14425 z"
         id="path35"
         inkscape:label="Start"
         sodipodi:nodetypes="sssss" /><path
         style="display:inline;fill:#323232;fill-opacity:1;stroke:none;stroke-width:0.345044;stroke-opacity:1"
         d="m 929.3759,239.42337 c -1.2437,-0.7835 -5.5982,-3.0083 -9.6765,-4.94401 -7.2695,-3.45031 -11.7027,-4.96905 -18.2053,-6.23678 -2.1041,-0.41021 -52.6635,-1.00642 -94.9144,-1.11928 l -16.1167,-0.043 v -7.96557 l -10e-5,-7.96561 50.3175,0.0972 c 29.0956,0.0562 52.4237,0.26339 55.3114,0.49124 3.261,0.25729 6.8911,0.85969 10.4614,1.73596 4.8709,1.19556 6.2012,1.70912 12.1934,4.70732 3.6993,1.85094 8.151,4.20613 9.8926,5.23372 l 3.1666,1.86834 v 7.78251 c 0,4.28037 -0.038,7.7825 -0.084,7.7825 -0.046,0 -1.1018,-0.64105 -2.3456,-1.42455 z"
         id="path3-7"
         inkscape:label="R" /><path
         style="display:inline;fill:#323232;fill-opacity:1;stroke:none;stroke-width:0.345044;stroke-opacity:1"
         d="m 322.42987,239.37425 c 1.24376,-0.7835 5.59821,-3.0083 9.67653,-4.94401 7.26947,-3.45031 11.70271,-4.96905 18.20529,-6.23678 2.10406,-0.41021 52.6635,-1.00642 94.91438,-1.11928 l 16.11671,-0.043 4e-5,-7.96557 4e-5,-7.96561 -50.31746,0.0972 c -29.09562,0.0562 -52.42369,0.26339 -55.31137,0.49124 -3.26101,0.25729 -6.89117,0.85969 -10.46142,1.73596 -4.87095,1.19556 -6.20122,1.70912 -12.19347,4.70732 -3.69927,1.85094 -8.15091,4.20613 -9.89254,5.23372 L 320,225.23378 v 7.78251 c 0,4.28037 0.0375,7.7825 0.084,7.7825 0.0458,0 1.10182,-0.64105 2.34557,-1.42455 z"
         id="path3-7-4"
         inkscape:label="L" /><path
         style="display:inline;fill:#323232;fill-opacity:1"
         d="m 540.44066,398.6214 c 1.99248,-3.59287 35.76603,-36.68919 38.96,-37.8155 11.08988,-3.91071 21.20668,10.0022 15.62788,16.83973 -1.52668,1.87114 -22.33003,23.37418 -32.58394,34.12002 -12.60444,13.20914 -27.15856,-3.84939 -22.00394,-13.14425 z"
         id="path35-0"
         inkscape:label="Select"
         sodipodi:nodetypes="sssss" /></g></g><g
     inkscape:groupmode="layer"
     id="layer3"
     inkscape:label="Pressed"
     style="display:inline"><g
       inkscape:groupmode="layer"
       id="layer5"
       inkscape:label="Buttons Pressed"
       style="display:inline"><path
         style="fill:#ffffff"
         d="m 802.9631,380.10243 c 19.3628,-13.60857 11.0083,-42.52428 -12.3246,-42.6574 -21.3088,-0.12156 -31.4163,24.79249 -16.1185,39.73049 7.5637,7.38569 20.2427,8.69041 28.4431,2.92691 z"
         id="path20-1"
         inkscape:label="Y" /><path
         style="fill:#ffffff"
         d="m 872.7864,324.32084 c 19.3627,-13.60857 11.0083,-42.52428 -12.3246,-42.6574 -21.3089,-0.12156 -31.4163,24.79249 -16.1184,39.73049 7.5636,7.38569 20.2426,8.69041 28.443,2.92691 z"
         id="path20-4"
         inkscape:label="X" /><path
         style="fill:#ffffff;fill-opacity:1"
         d="m 944.2422,379.96596 c 19.3628,-13.60857 11.0083,-42.52428 -12.3246,-42.6574 -21.3089,-0.12156 -31.4163,24.79249 -16.1184,39.73049 7.5636,7.38569 20.2426,8.69041 28.443,2.92691 z"
         id="path20-5"
         inkscape:label="A" /><path
         style="fill:#ffffff"
         d="m 873.4904,437.14288 c 19.3627,-13.60857 11.0083,-42.52428 -12.3246,-42.6574 -21.3089,-0.12156 -31.4164,24.79249 -16.1185,39.73049 7.5637,7.38569 20.2427,8.69041 28.4431,2.92691 z"
         id="path20"
         inkscape:label="B" /><path
         style="fill:#ffffff;stroke-width:0.714288"
         d="m 640.8886,396.15054 c 2.34854,-2.45434 25.13506,-25.77586 27.1789,-27.66489 5.01678,-4.63679 16.34379,6.17743 11.44547,11.75975 -1.13769,1.29657 -17.52528,17.54644 -24.54569,25.18477 -9.71846,10.57385 -18.86119,-4.28167 -14.07868,-9.27963 z"
         id="path35-3-5-0"
         inkscape:label="start"
         sodipodi:nodetypes="sssss" /><path
         style="display:inline;fill:#ffffff;stroke-width:0.714288"
         d="m 549.01344,396.24844 c 2.34854,-2.45434 25.13506,-25.77586 27.1789,-27.66489 5.01678,-4.63679 16.34379,6.17743 11.44547,11.75975 -1.13769,1.29657 -17.52528,17.54644 -24.54569,25.18477 -9.71846,10.57385 -18.86119,-4.28167 -14.07868,-9.27963 z"
         id="path35-3-5-0-6"
         inkscape:label="select"
         sodipodi:nodetypes="sssss" /><path
         style="display:inline;fill:#ffffff;fill-opacity:1;stroke:none;stroke-width:0.345044;stroke-opacity:1"
         d="m 929.3759,239.42337 c -1.2437,-0.7835 -5.5982,-3.0083 -9.6765,-4.94401 -7.2695,-3.45031 -11.7027,-4.96905 -18.2053,-6.23678 -2.1041,-0.41021 -52.6635,-1.00642 -94.9144,-1.11928 l -16.1167,-0.043 v -7.96557 l -10e-5,-7.96561 50.3175,0.0972 c 29.0956,0.0562 52.4237,0.26339 55.3114,0.49124 3.261,0.25729 6.8911,0.85969 10.4614,1.73596 4.8709,1.19556 6.2012,1.70912 12.1934,4.70732 3.6993,1.85094 8.151,4.20613 9.8926,5.23372 l 3.1666,1.86834 v 7.78251 c 0,4.28037 -0.038,7.7825 -0.084,7.7825 -0.046,0 -1.1018,-0.64105 -2.3456,-1.42455 z"
         id="path3-7-8"
         inkscape:label="R-bumper" /><path
         style="display:inline;fill:#ffffff;fill-opacity:1;stroke:none;stroke-width:0.345044;stroke-opacity:1"
         d="m 322.42987,239.37425 c 1.24376,-0.7835 5.59821,-3.0083 9.67653,-4.94401 7.26947,-3.45031 11.70271,-4.96905 18.20529,-6.23678 2.10406,-0.41021 52.6635,-1.00642 94.91438,-1.11928 l 16.11671,-0.043 4e-5,-7.96557 4e-5,-7.96561 -50.31746,0.0972 c -29.09562,0.0562 -52.42369,0.26339 -55.31137,0.49124 -3.26101,0.25729 -6.89117,0.85969 -10.46142,1.73596 -4.87095,1.19556 -6.20122,1.70912 -12.19347,4.70732 -3.69927,1.85094 -8.15091,4.20613 -9.89254,5.23372 L 320,225.23378 v 7.78251 c 0,4.28037 0.0375,7.7825 0.084,7.7825 0.0458,0 1.10182,-0.64105 2.34557,-1.42455 z"
         id="path3-7-4-7"
         inkscape:label="L-bumper" /></g><g
       inkscape:groupmode="layer"
       id="layer6"
       inkscape:label="D-Pad Pressed"
       style="display:inline"><path
         sodipodi:type="star"
         style="display:inline;fill:#ffffff;fill-opacity:1"
         id="path36"
         inkscape:flatsided="true"
         sodipodi:sides="3"
         sodipodi:cx="442.64886"
         sodipodi:cy="362.92255"
         sodipodi:r1="25.456457"
         sodipodi:r2="12.728229"
         sodipodi:arg1="-1.5707963"
         sodipodi:arg2="-0.52359878"
         inkscape:rounded="0.01"
         inkscape:randomized="0"
         d="m 442.64887,337.46609 c 0.44091,0 22.26639,37.80284 22.04593,38.18469 -0.22046,0.38184 -43.87141,0.38184 -44.09187,-10e-6 -0.22046,-0.38184 21.60502,-38.18468 22.04594,-38.18468 z"
         inkscape:transform-center-y="-5.2490162"
         transform="matrix(0.84765881,0,0,0.84376812,15.64701,10.995992)"
         inkscape:label="up" /><path
         sodipodi:type="star"
         style="display:inline;fill:#ffffff;fill-opacity:1"
         id="path36-6"
         inkscape:flatsided="true"
         sodipodi:sides="3"
         sodipodi:cx="442.64886"
         sodipodi:cy="362.92255"
         sodipodi:r1="25.456457"
         sodipodi:r2="12.728229"
         sodipodi:arg1="-1.5707963"
         sodipodi:arg2="-0.52359878"
         inkscape:rounded="0.01"
         inkscape:randomized="0"
         d="m 442.64887,337.46609 c 0.44091,0 22.26639,37.80284 22.04593,38.18469 -0.22046,0.38184 -43.87141,0.38184 -44.09187,-10e-6 -0.22046,-0.38184 21.60502,-38.18468 22.04594,-38.18468 z"
         transform="matrix(0,0.84765881,-0.84376812,0,741.3772,-14.787249)"
         inkscape:transform-center-x="-5.2490211"
         inkscape:label="right" /><path
         sodipodi:type="star"
         style="display:inline;fill:#ffffff;fill-opacity:1"
         id="path36-6-7-1"
         inkscape:flatsided="true"
         sodipodi:sides="3"
         sodipodi:cx="442.64886"
         sodipodi:cy="362.92255"
         sodipodi:r1="25.456457"
         sodipodi:r2="12.728229"
         sodipodi:arg1="-1.5707963"
         sodipodi:arg2="-0.52359878"
         inkscape:rounded="0.01"
         inkscape:randomized="0"
         d="m 442.64887,337.46609 c 0.44091,0 22.26639,37.80284 22.04593,38.18469 -0.22046,0.38184 -43.87141,0.38184 -44.09187,-10e-6 -0.22046,-0.38184 21.60502,-38.18468 22.04594,-38.18468 z"
         transform="matrix(0,-0.84765881,0.84376812,0,39.43025,735.64317)"
         inkscape:transform-center-y="2.7021691e-06"
         inkscape:transform-center-x="5.2490231"
         inkscape:label="left" /><path
         sodipodi:type="star"
         style="display:inline;fill:#ffffff;fill-opacity:1"
         id="path36-6-7"
         inkscape:flatsided="true"
         sodipodi:sides="3"
         sodipodi:cx="442.64886"
         sodipodi:cy="362.92255"
         sodipodi:r1="25.456457"
         sodipodi:r2="12.728229"
         sodipodi:arg1="-1.5707963"
         sodipodi:arg2="-0.52359878"
         inkscape:rounded="0.01"
         inkscape:randomized="0"
         d="m 442.64887,337.46609 c 0.44091,0 22.26639,37.80284 22.04593,38.18469 -0.22046,0.38184 -43.87141,0.38184 -44.09187,-10e-6 -0.22046,-0.38184 21.60502,-38.18468 22.04594,-38.18468 z"
         transform="matrix(-0.84765881,0,0,-0.84376812,766.0774,712.94291)"
         inkscape:transform-center-y="5.2490231"
         inkscape:label="down" /></g></g></svg>
