<?xml version="1.0" encoding="UTF-8" standalone="no"?>
<!-- Created with Inkscape (http://www.inkscape.org/) -->

<svg
   width="1280"
   height="720"
   viewBox="0 0 1280 720"
   version="1.1"
   id="svg1"
   xml:space="preserve"
   inkscape:version="1.4.2 (f4327f4, 2025-05-13)"
   sodipodi:docname="N64-controller.svg"
   inkscape:export-filename="png\pressed\C-right.png"
   inkscape:export-xdpi="96"
   inkscape:export-ydpi="96"
   xmlns:inkscape="http://www.inkscape.org/namespaces/inkscape"
   xmlns:sodipodi="http://sodipodi.sourceforge.net/DTD/sodipodi-0.dtd"
   xmlns="http://www.w3.org/2000/svg"
   xmlns:svg="http://www.w3.org/2000/svg"><sodipodi:namedview
     id="namedview1"
     pagecolor="#505050"
     bordercolor="#eeeeee"
     borderopacity="1"
     inkscape:showpageshadow="0"
     inkscape:pageopacity="0"
     inkscape:pagecheckerboard="true"
     inkscape:deskcolor="#505050"
     inkscape:document-units="px"
     inkscape:zoom="1.4142136"
     inkscape:cx="557.20014"
     inkscape:cy="239.00209"
     inkscape:window-width="2560"
     inkscape:window-height="1369"
     inkscape:window-x="-8"
     inkscape:window-y="-8"
     inkscape:window-maximized="1"
     inkscape:current-layer="layer7"
     showgrid="false"
     showguides="true"
     inkscape:export-bgcolor="#ffffff00"><inkscape:grid
       id="grid36"
       units="px"
       originx="0"
       originy="0"
       spacingx="1"
       spacingy="1"
       empcolor="#0099e5"
       empopacity="0.30196078"
       color="#0099e5"
       opacity="0.14901961"
       empspacing="5"
       enabled="true"
       visible="false" /><sodipodi:guide
       position="640,360"
       orientation="0,1"
       id="guide1"
       inkscape:locked="false"
       inkscape:label=""
       inkscape:color="rgb(0,134,229)" /><sodipodi:guide
       position="640,360"
       orientation="-1,0"
       id="guide2"
       inkscape:locked="false"
       inkscape:label=""
       inkscape:color="rgb(0,134,229)" /></sodipodi:namedview><defs
     id="defs1" /><path
     d="M 535.017,94.319 V 76.351 C 498.082,47.403 414.734,45.904 414.734,45.904 l -4.485,-6.983 C 358.822,7.77 294.703,9.93 293.516,9.973 292.335,9.93 228.209,7.77 176.789,38.92 l -4.492,6.989 c 0,0 -83.348,1.5 -120.282,30.447 v 17.969 c 0,0 -41.09,36.267 -41.09,81.518 0,45.251 -30.612,188.325 10.649,266.844 41.255,78.514 77.853,-61.23 81.849,-87.18 3.997,-25.948 17.968,-57.895 26.616,-62.552 0,0 76.524,-5.325 79.854,54.565 3.323,59.854 24.927,226.703 83.569,229.567 v 0.013 c 0.019,0 0.036,-0.007 0.055,-0.007 0.019,0 0.037,0.007 0.056,0.007 v -0.013 c 58.641,-2.87 80.245,-169.72 83.568,-229.567 3.329,-59.89 79.854,-54.565 79.854,-54.565 8.653,4.657 22.626,36.597 26.616,62.552 3.99,25.955 40.594,165.699 81.849,87.174 41.255,-78.526 10.648,-221.593 10.648,-266.844 0.005,-45.251 -41.091,-81.518 -41.091,-81.518 z m -373.969,98.483 c 0,4.988 -4.058,9.052 -9.051,9.052 H 130.1 v 21.891 c 0,4.988 -4.058,9.051 -9.051,9.051 h -15.967 c -4.988,0 -9.051,-4.058 -9.051,-9.051 V 201.854 H 74.132 c -4.988,0 -9.052,-4.064 -9.052,-9.052 v -15.967 c 0,-4.988 4.058,-9.052 9.052,-9.052 H 96.03 v -21.891 c 0,-4.988 4.057,-9.051 9.051,-9.051 h 15.967 c 4.988,0 9.051,4.057 9.051,9.051 v 21.891 h 21.897 c 4.988,0 9.051,4.058 9.051,9.052 v 15.967 z m 324.176,-78.085 c 11.047,0 20.031,8.984 20.031,20.024 0,11.041 -8.984,20.025 -20.031,20.025 -11.04,0 -20.024,-8.984 -20.024,-20.025 0,-11.04 8.977,-20.024 20.024,-20.024 z m -33.941,33.935 c 11.047,0 20.031,8.984 20.031,20.024 0,11.04 -8.984,20.031 -20.031,20.031 -11.04,0 -20.024,-8.99 -20.024,-20.031 0,-11.041 8.984,-20.024 20.024,-20.024 z M 293.516,388.066 c -34.651,0 -62.84,-28.188 -62.84,-62.84 0,-34.652 28.188,-62.847 62.84,-62.847 34.651,0 62.839,28.188 62.839,62.847 10e-4,34.652 -28.188,62.84 -62.839,62.84 z M 267.5,211.101 c 0,-14.345 11.671,-26.016 26.016,-26.016 14.345,0 26.016,11.671 26.016,26.016 0,14.352 -11.671,26.022 -26.016,26.022 -14.345,0 -26.016,-11.671 -26.016,-26.022 z M 371.839,85.353 c -2.105,7.411 -8.403,12.656 -16.543,13.746 -0.752,0.098 -1.512,0.165 -2.271,0.251 -39.663,0 -79.32,0 -118.984,0 -0.496,-0.055 -0.991,-0.11 -1.487,-0.159 -2.834,-0.282 -5.539,-1.028 -8.036,-2.405 -5.587,-3.084 -8.886,-7.791 -9.859,-14.113 -0.104,-0.685 -0.159,-1.383 -0.239,-2.075 0,-0.477 0,-0.948 0,-1.426 0.08,-0.704 0.141,-1.414 0.239,-2.111 0.716,-4.902 2.962,-8.972 6.799,-12.105 3.929,-3.213 8.519,-4.584 13.531,-4.584 39.027,-0.012 78.048,-0.006 117.075,-0.006 2.051,0 4.07,0.251 6.053,0.789 11.128,3.004 16.647,13.892 13.722,24.198 z m 4.517,120.76 c 0,-14.345 11.671,-26.016 26.016,-26.016 14.346,0 26.017,11.671 26.017,26.016 0,14.352 -11.671,26.022 -26.017,26.022 -14.345,0 -26.016,-11.677 -26.016,-26.022 z m 63.947,67.938 c -14.345,0 -26.016,-11.671 -26.016,-26.016 0,-14.345 11.671,-26.016 26.016,-26.016 14.346,0 26.017,11.671 26.017,26.016 0,14.345 -11.671,26.016 -26.017,26.016 z m 44.921,-51.402 c -11.04,0 -20.024,-8.984 -20.024,-20.024 0,-11.04 8.984,-20.025 20.024,-20.025 11.047,0 20.031,8.984 20.031,20.025 0,11.041 -8.99,20.024 -20.031,20.024 z m 33.936,-33.935 c -11.04,0 -20.024,-8.99 -20.024,-20.031 0,-11.041 8.984,-20.025 20.024,-20.025 11.047,0 20.031,8.984 20.031,20.025 0,11.041 -8.984,20.031 -20.031,20.031 z"
     id="path4"
     style="display:none;fill:#000000"
     inkscape:label="controller-outline"
     transform="matrix(1.3627947,0,0,1.3627947,239.45801,73.000063)" /><g
     inkscape:label="Unpressed"
     inkscape:groupmode="layer"
     id="layer1"
     style="display:inline"><g
       inkscape:groupmode="layer"
       id="layer2"
       inkscape:label="D-Pad"><path
         style="fill:#323232;fill-opacity:1"
         d="m 372.5939,430.74696 c -7.5181,-2.18497 -9.43166,-7.89803 -9.43933,-28.18172 -0.006,-14.75 -0.006,-14.75 -16.75557,-14.75374 -25.35499,-0.006 -26.25,-0.92611 -26.25,-26.99626 0,-25.88459 0.37161,-26.27122 25.95071,-27 17.54929,-0.5 17.54929,-0.5 18.04929,-18 0.72499,-25.37485 0.32765,-25 26.5,-25 28.17763,0 26.93816,-1.81641 27.46552,40.25 0.0345,2.75 0.0345,2.75 16.13335,2.75 25.75536,0 26.40113,0.66042 26.40113,27 0,26.34818 0.0745,26.2693 -25.5,27 -17.5,0.5 -17.5,0.5 -18,18 -0.7277,25.46939 -1.32203,26.05673 -26.21788,25.90981 -8.40517,-0.0496 -16.65692,-0.48974 -18.33722,-0.97809 z"
         id="path33"
         inkscape:label="D-pad" /></g><g
       inkscape:groupmode="layer"
       id="layer4"
       inkscape:label="Buttons"><rect
         style="font-variation-settings:normal;display:inline;opacity:1;vector-effect:none;fill:#323232;fill-opacity:1;stroke-width:1.43832;stroke-linecap:butt;stroke-linejoin:miter;stroke-miterlimit:4;stroke-dasharray:none;stroke-dashoffset:0;stroke-opacity:1;-inkscape-stroke:none"
         id="rect4"
         width="48.436832"
         height="78.312065"
         x="615.77655"
         y="590.38336"
         ry="10.253048"
         inkscape:label="Z" /><path
         d="m 403.66897,186.217 c -11.6883,0 -21.19297,9.50467 -21.19297,21.19297 0,11.6883 9.50467,21.19936 21.19297,21.19936 11.68191,0 21.19296,-9.51106 21.19296,-21.19936 0,-11.6883 -9.50466,-21.19297 -21.19296,-21.19297 z"
         id="path1"
         style="display:inline;fill:#323232;fill-opacity:1;stroke-width:1.06519"
         inkscape:label="B"
         transform="matrix(1.3627947,0,0,1.3627947,239.45801,73.000063)" /><path
         d="m 441.40559,228.139 c -11.5811,0 -20.99859,9.41749 -20.99859,20.99859 0,11.5811 9.41749,20.99859 20.99859,20.99859 11.57582,0 20.99859,-9.41749 20.99859,-20.99859 0,-11.5811 -9.41644,-20.99859 -20.99859,-20.99859 z"
         id="path3"
         style="font-variation-settings:normal;display:inline;opacity:1;vector-effect:none;fill:#323232;fill-opacity:1;stroke-width:1.05542;stroke-linecap:butt;stroke-linejoin:miter;stroke-miterlimit:4;stroke-dasharray:none;stroke-dashoffset:0;stroke-opacity:1;-inkscape-stroke:none;stop-color:#000000;stop-opacity:1"
         inkscape:label="A"
         transform="matrix(1.3627947,0,0,1.3627947,239.45801,73.000063)" /><path
         d="m 667.12833,359.96917 c 0,-14.95395 -12.16022,-27.11417 -27.11417,-27.11417 -14.95394,0 -27.11416,12.16022 -27.11416,27.11417 0,14.95394 12.16022,27.12234 27.11416,27.12234 14.95531,0 27.11417,-12.1684 27.11417,-27.12234 z"
         id="path10"
         inkscape:label="start"
         style="display:inline;fill:#323232;fill-opacity:1;stroke-width:1.36279" /><path
         style="display:inline;fill:#323232;fill-opacity:1;stroke:none;stroke-width:0.345044;stroke-opacity:1"
         d="m 956.24596,203.27425 c -1.2437,-0.7835 -5.5982,-3.0083 -9.6765,-4.94401 -7.2695,-3.45031 -11.7027,-4.96905 -18.2053,-6.23678 -2.1041,-0.41021 -52.6635,-1.00642 -94.9144,-1.11928 l -16.1167,-0.043 v -7.96557 l -1e-4,-7.96561 50.3175,0.0972 c 29.0956,0.0562 52.4237,0.26339 55.3114,0.49124 3.261,0.25729 6.8911,0.85969 10.4614,1.73596 4.8709,1.19556 6.2012,1.70912 12.1934,4.70732 3.6993,1.85094 8.151,4.20613 9.8926,5.23372 l 3.1666,1.86834 v 7.78251 c 0,4.28037 -0.038,7.7825 -0.084,7.7825 -0.046,0 -1.1018,-0.64105 -2.3456,-1.42455 z"
         id="path3-7"
         inkscape:label="R" /><path
         style="display:inline;fill:#323232;fill-opacity:1;stroke:none;stroke-width:0.345044;stroke-opacity:1"
         d="m 322.42987,203.27425 c 1.24376,-0.7835 5.59821,-3.0083 9.67653,-4.94401 7.26947,-3.45031 11.70271,-4.96905 18.20529,-6.23678 2.10406,-0.41021 52.6635,-1.00642 94.91438,-1.11928 l 16.11671,-0.043 4e-5,-7.96557 4e-5,-7.96561 -50.31746,0.0972 c -29.09562,0.0562 -52.42369,0.26339 -55.31137,0.49124 -3.26101,0.25729 -6.89117,0.85969 -10.46142,1.73596 -4.87095,1.19556 -6.20122,1.70912 -12.19347,4.70732 -3.69927,1.85094 -8.15091,4.20613 -9.89254,5.23372 L 320,189.13378 v 7.78251 c 0,4.28037 0.0375,7.7825 0.084,7.7825 0.0458,0 1.10182,-0.64105 2.34557,-1.42455 z"
         id="path3-7-4"
         inkscape:label="L" /></g><g
       inkscape:groupmode="layer"
       id="layer8"
       inkscape:label="C-buttons"><circle
         cx="900.71869"
         cy="349.1268"
         r="18.949659"
         id="circle5-6"
         inkscape:label="C-down"
         style="display:inline;fill:#323232;fill-opacity:1;stroke-width:1.36279" /><circle
         cx="946.96649"
         cy="302.88037"
         r="18.957838"
         id="circle6-8"
         inkscape:label="C-right"
         style="display:inline;fill:#323232;fill-opacity:1;stroke-width:1.36279" /><circle
         cx="854.46405"
         cy="302.88037"
         r="18.957838"
         id="circle7-5"
         inkscape:label="C-left"
         style="display:inline;fill:#323232;fill-opacity:1;stroke-width:1.36279" /><circle
         cx="900.71869"
         cy="256.63391"
         r="18.949659"
         id="circle8-7"
         inkscape:label="C-up"
         style="display:inline;fill:#323232;fill-opacity:1;stroke-width:1.36279" /></g><g
       style="display:inline;fill:#000000"
       id="g1"
       transform="matrix(1.3627947,0,0,1.3627947,242.99354,80.071131)"
       inkscape:label="joystick"><path
         d="m 291.3265,263.34978 c -25.0184,0 -45.376,20.3576 -45.376,45.3808 0,25.0232 20.3576,45.3768 45.376,45.3768 25.0184,0 45.376,-20.3528 45.376,-45.3768 0,-25.024 -20.3536,-45.3808 -45.376,-45.3808 z m 0,69.832 c -13.4832,0 -24.4504,-10.9672 -24.4504,-24.4504 0,-13.4832 10.9664,-24.4504 24.4504,-24.4504 13.4832,0 24.4504,10.9672 24.4504,24.4504 0,13.4832 -10.9672,24.4504 -24.4504,24.4504 z"
         id="path6"
         style="display:inline;fill:#323232;fill-opacity:1;stroke-width:0.8"
         inkscape:label="joy-range" /></g></g><g
     inkscape:groupmode="layer"
     id="layer3"
     inkscape:label="Pressed"
     style="display:inline"><g
       inkscape:groupmode="layer"
       id="layer5"
       inkscape:label="Buttons Pressed"
       style="display:inline"><rect
         style="font-variation-settings:normal;display:inline;vector-effect:none;fill:#ffffff;fill-opacity:1;stroke-width:1.15066;stroke-linecap:butt;stroke-linejoin:miter;stroke-miterlimit:4;stroke-dasharray:none;stroke-dashoffset:0;stroke-opacity:1;-inkscape-stroke:none"
         id="rect4-2"
         width="38.749466"
         height="62.649651"
         x="620.62677"
         y="598.49945"
         ry="8.2024384"
         inkscape:label="Z-in" /><path
         d="m 790.00672,332.3381 c -12.743,0 -23.10533,10.36234 -23.10533,23.10534 0,12.743 10.36233,23.1123 23.10533,23.1123 12.73604,0 23.10533,-10.3693 23.10533,-23.1123 0,-12.743 -10.36232,-23.10534 -23.10533,-23.10534 z"
         id="path1-1"
         style="display:inline;fill:#ffffff;fill-opacity:1;stroke-width:1.16131"
         inkscape:label="B-in" /><path
         d="m 841.21736,389.65668 c -12.62613,0 -22.89342,10.26729 -22.89342,22.89342 0,12.62612 10.26729,22.89341 22.89342,22.89341 12.62036,0 22.89341,-10.26729 22.89341,-22.89341 0,-12.62613 -10.26614,-22.89342 -22.89341,-22.89342 z"
         id="path3-2"
         style="font-variation-settings:normal;display:inline;vector-effect:none;fill:#ffffff;fill-opacity:1;stroke-width:1.15066;stroke-linecap:butt;stroke-linejoin:miter;stroke-miterlimit:4;stroke-dasharray:none;stroke-dashoffset:0;stroke-opacity:1;-inkscape-stroke:none;stop-color:#000000"
         inkscape:label="A-in" /><path
         d="m 661.69266,360.00634 c 0,-11.96316 -9.72817,-21.69134 -21.69133,-21.69134 -11.96315,0 -21.69133,9.72818 -21.69133,21.69134 0,11.96315 9.72818,21.69787 21.69133,21.69787 11.96425,0 21.69133,-9.73472 21.69133,-21.69787 z"
         id="path10-8"
         inkscape:label="start-in"
         style="display:inline;fill:#ffffff;stroke-width:1.09023" /><path
         style="display:inline;fill:#ffffff;fill-opacity:1;stroke:none;stroke-width:0.345044;stroke-opacity:1"
         d="m 956.24596,203.27425 c -1.2437,-0.7835 -5.5982,-3.0083 -9.6765,-4.94401 -7.2695,-3.45031 -11.7027,-4.96905 -18.2053,-6.23678 -2.1041,-0.41021 -52.6635,-1.00642 -94.9144,-1.11928 l -16.1167,-0.043 v -7.96557 l -1e-4,-7.96561 50.3175,0.0972 c 29.0956,0.0562 52.4237,0.26339 55.3114,0.49124 3.261,0.25729 6.8911,0.85969 10.4614,1.73596 4.8709,1.19556 6.2012,1.70912 12.1934,4.70732 3.6993,1.85094 8.151,4.20613 9.8926,5.23372 l 3.1666,1.86834 v 7.78251 c 0,4.28037 -0.038,7.7825 -0.084,7.7825 -0.046,0 -1.1018,-0.64105 -2.3456,-1.42455 z"
         id="path3-7-8"
         inkscape:label="R-in" /><path
         style="display:inline;fill:#ffffff;fill-opacity:1;stroke:none;stroke-width:0.345044;stroke-opacity:1"
         d="m 322.42987,203.27425 c 1.24376,-0.7835 5.59821,-3.0083 9.67653,-4.94401 7.26947,-3.45031 11.70271,-4.96905 18.20529,-6.23678 2.10406,-0.41021 52.6635,-1.00642 94.91438,-1.11928 l 16.11671,-0.043 4e-5,-7.96557 4e-5,-7.96561 -50.31746,0.0972 c -29.09562,0.0562 -52.42369,0.26339 -55.31137,0.49124 -3.26101,0.25729 -6.89117,0.85969 -10.46142,1.73596 -4.87095,1.19556 -6.20122,1.70912 -12.19347,4.70732 -3.69927,1.85094 -8.15091,4.20613 -9.89254,5.23372 L 320,189.13378 v 7.78251 c 0,4.28037 0.0375,7.7825 0.084,7.7825 0.0458,0 1.10182,-0.64105 2.34557,-1.42455 z"
         id="path3-7-4-7"
         inkscape:label="L-in" /></g><g
       inkscape:groupmode="layer"
       id="layer7"
       inkscape:label="C-buttons Pressed"><circle
         cx="900.80121"
         cy="349.46329"
         r="15.159728"
         id="circle5"
         inkscape:label="C-down-in"
         style="display:inline;fill:#ffffff;fill-opacity:1;stroke-width:1.09024" /><circle
         cx="947.17444"
         cy="303.09113"
         r="15.16627"
         id="circle6"
         inkscape:label="C-right-in"
         style="display:inline;fill:#ffffff;fill-opacity:1;stroke-width:1.09024" /><circle
         cx="854.67249"
         cy="302.96613"
         r="15.16627"
         id="circle7"
         inkscape:label="C-left-in"
         style="display:inline;fill:#ffffff;fill-opacity:1;stroke-width:1.09024" /><circle
         cx="900.92621"
         cy="257.21899"
         r="15.159728"
         id="circle8"
         inkscape:label="C-up-in"
         style="display:inline;fill:#ffffff;fill-opacity:1;stroke-width:1.09024" /></g><g
       inkscape:groupmode="layer"
       id="layer6"
       inkscape:label="D-Pad Pressed"
       style="display:inline"><path
         sodipodi:type="star"
         style="display:inline;fill:#ffffff;fill-opacity:1"
         id="path36"
         inkscape:flatsided="true"
         sodipodi:sides="3"
         sodipodi:cx="442.64886"
         sodipodi:cy="362.92255"
         sodipodi:r1="25.456457"
         sodipodi:r2="12.728229"
         sodipodi:arg1="-1.5707963"
         sodipodi:arg2="-0.52359878"
         inkscape:rounded="0.01"
         inkscape:randomized="0"
         d="m 442.64887,337.46609 c 0.44091,0 22.26639,37.80284 22.04593,38.18469 -0.22046,0.38184 -43.87141,0.38184 -44.09187,-10e-6 -0.22046,-0.38184 21.60502,-38.18468 22.04594,-38.18468 z"
         inkscape:transform-center-y="-5.2490162"
         transform="matrix(0.84765881,0,0,0.84376812,15.64701,10.995992)"
         inkscape:label="up" /><path
         sodipodi:type="star"
         style="display:inline;fill:#ffffff;fill-opacity:1"
         id="path36-6"
         inkscape:flatsided="true"
         sodipodi:sides="3"
         sodipodi:cx="442.64886"
         sodipodi:cy="362.92255"
         sodipodi:r1="25.456457"
         sodipodi:r2="12.728229"
         sodipodi:arg1="-1.5707963"
         sodipodi:arg2="-0.52359878"
         inkscape:rounded="0.01"
         inkscape:randomized="0"
         d="m 442.64887,337.46609 c 0.44091,0 22.26639,37.80284 22.04593,38.18469 -0.22046,0.38184 -43.87141,0.38184 -44.09187,-10e-6 -0.22046,-0.38184 21.60502,-38.18468 22.04594,-38.18468 z"
         transform="matrix(0,0.84765881,-0.84376812,0,741.3772,-14.787249)"
         inkscape:transform-center-x="-5.2490211"
         inkscape:label="right" /><path
         sodipodi:type="star"
         style="display:inline;fill:#ffffff;fill-opacity:1"
         id="path36-6-7-1"
         inkscape:flatsided="true"
         sodipodi:sides="3"
         sodipodi:cx="442.64886"
         sodipodi:cy="362.92255"
         sodipodi:r1="25.456457"
         sodipodi:r2="12.728229"
         sodipodi:arg1="-1.5707963"
         sodipodi:arg2="-0.52359878"
         inkscape:rounded="0.01"
         inkscape:randomized="0"
         d="m 442.64887,337.46609 c 0.44091,0 22.26639,37.80284 22.04593,38.18469 -0.22046,0.38184 -43.87141,0.38184 -44.09187,-10e-6 -0.22046,-0.38184 21.60502,-38.18468 22.04594,-38.18468 z"
         transform="matrix(0,-0.84765881,0.84376812,0,39.43025,735.64317)"
         inkscape:transform-center-y="2.7021691e-06"
         inkscape:transform-center-x="5.2490231"
         inkscape:label="left" /><path
         sodipodi:type="star"
         style="display:inline;fill:#ffffff;fill-opacity:1"
         id="path36-6-7"
         inkscape:flatsided="true"
         sodipodi:sides="3"
         sodipodi:cx="442.64886"
         sodipodi:cy="362.92255"
         sodipodi:r1="25.456457"
         sodipodi:r2="12.728229"
         sodipodi:arg1="-1.5707963"
         sodipodi:arg2="-0.52359878"
         inkscape:rounded="0.01"
         inkscape:randomized="0"
         d="m 442.64887,337.46609 c 0.44091,0 22.26639,37.80284 22.04593,38.18469 -0.22046,0.38184 -43.87141,0.38184 -44.09187,-10e-6 -0.22046,-0.38184 21.60502,-38.18468 22.04594,-38.18468 z"
         transform="matrix(-0.84765881,0,0,-0.84376812,766.0774,712.94291)"
         inkscape:transform-center-y="5.2490231"
         inkscape:label="down" /></g><g
       inkscape:groupmode="layer"
       id="layer9"
       inkscape:label="joystick"
       style="display:inline"><path
         d="m 291.3265,289.17138 c -10.7808,0 -19.5544,8.7736 -19.5544,19.5544 0,10.7808 8.7736,19.5544 19.5544,19.5544 10.7808,0 19.5544,-8.7736 19.5544,-19.5544 0,-10.7808 -8.7736,-19.5544 -19.5544,-19.5544 z"
         id="path7"
         inkscape:label="joy-stick"
         style="display:inline;fill:#ffffff;stroke-width:0.8"
         transform="matrix(1.3627947,0,0,1.3627947,242.99354,80.071131)" /></g></g></svg>
