<?xml version="1.0" encoding="UTF-8" standalone="no"?>
<!-- Created with Inkscape (http://www.inkscape.org/) -->

<svg
   width="1280"
   height="720"
   viewBox="0 0 1280 720"
   version="1.1"
   id="svg1"
   xml:space="preserve"
   inkscape:version="1.4.2 (f4327f4, 2025-05-13)"
   sodipodi:docname="GC-controller.svg"
   inkscape:export-filename="png\pressed\X.png"
   inkscape:export-xdpi="96"
   inkscape:export-ydpi="96"
   xmlns:inkscape="http://www.inkscape.org/namespaces/inkscape"
   xmlns:sodipodi="http://sodipodi.sourceforge.net/DTD/sodipodi-0.dtd"
   xmlns="http://www.w3.org/2000/svg"
   xmlns:svg="http://www.w3.org/2000/svg"><sodipodi:namedview
     id="namedview1"
     pagecolor="#505050"
     bordercolor="#eeeeee"
     borderopacity="1"
     inkscape:showpageshadow="0"
     inkscape:pageopacity="0"
     inkscape:pagecheckerboard="true"
     inkscape:deskcolor="#505050"
     inkscape:document-units="px"
     inkscape:zoom="1"
     inkscape:cx="469"
     inkscape:cy="353"
     inkscape:window-width="2560"
     inkscape:window-height="1369"
     inkscape:window-x="-8"
     inkscape:window-y="-8"
     inkscape:window-maximized="1"
     inkscape:current-layer="layer5"
     showgrid="false"
     showguides="true"
     inkscape:export-bgcolor="#ffffff00"><inkscape:grid
       id="grid36"
       units="px"
       originx="0"
       originy="0"
       spacingx="1"
       spacingy="1"
       empcolor="#0099e5"
       empopacity="0.30196078"
       color="#0099e5"
       opacity="0.14901961"
       empspacing="5"
       enabled="true"
       visible="false" /><sodipodi:guide
       position="640,360"
       orientation="0,1"
       id="guide1"
       inkscape:locked="false"
       inkscape:label=""
       inkscape:color="rgb(0,134,229)" /><sodipodi:guide
       position="640,360"
       orientation="-1,0"
       id="guide2"
       inkscape:locked="false"
       inkscape:label=""
       inkscape:color="rgb(0,134,229)" /><sodipodi:guide
       position="849.23524,576.45732"
       orientation="1,0"
       id="guide4"
       inkscape:locked="false" /><sodipodi:guide
       position="956.00836,546.05173"
       orientation="1,0"
       id="guide5"
       inkscape:locked="false" /><sodipodi:guide
       position="335.16861,453.06719"
       orientation="1,0"
       id="guide6"
       inkscape:locked="false" /><sodipodi:guide
       position="463.68527,596.07954"
       orientation="0,-1"
       id="guide7"
       inkscape:locked="false" /></sodipodi:namedview><defs
     id="defs1" /><g
     style="display:inline;fill:#000000"
     id="g4"
     transform="matrix(1.3656958,0,0,1.3656958,239.73175,-63.830685)"><path
       d="m 534.253,184.444 c 0,0 -9.241,-47.925 -77.376,-34.07 0,0 -39.235,-21.389 -143.03,-24.945 5.086,-25.888 37.21,-20.086 54.945,-32.706 14.982,-10.655 22.571,-29.37 20.943,-47.369 -1.408,-15.588 -25.9,-15.729 -24.48,0 1.071,11.848 -2.595,21.799 -12.564,28.893 -9.994,7.111 -24.406,4.278 -35.221,10.153 -16.261,8.831 -25.232,22.889 -28.103,40.625 C 172.524,126.623 128.9,150.374 128.9,150.374 60.772,136.519 51.531,184.444 51.531,184.444 -16.027,229.481 3.606,312.633 3.606,312.633 -3.322,396.937 -5.923,552.17 50.375,552.17 c 56.298,0 56.01,-145.424 56.01,-145.424 0,0 9.817,16.169 17.32,37.534 7.503,21.365 63.52,79.683 124.144,15.588 60.631,-64.095 -23.097,-128.189 -23.097,-128.189 v -10.19 c 20.208,-5.575 68.134,-6.554 68.134,-6.554 0,0 47.926,0.979 68.134,6.554 v 10.19 c 0,0 -83.728,64.095 -23.097,128.189 60.631,64.094 116.642,5.777 124.145,-15.588 7.503,-21.364 17.325,-37.534 17.325,-37.534 0,0 -0.287,145.424 56.011,145.424 56.298,0 53.703,-155.24 46.769,-239.543 0.006,0 19.639,-83.146 -47.92,-128.183 z M 362.66,159.456 c 1.769,-0.037 3.537,-0.049 5.3,0.006 1.469,0.043 2.467,1.04 2.497,2.521 0.049,2.423 0.055,4.847 0,7.271 -0.037,1.634 -1.438,2.913 -3.201,2.98 -1.346,0.049 -2.698,0.049 -4.045,0 -1.946,-0.067 -3.237,-1.444 -3.25,-3.391 -0.006,-1.077 0,-2.148 0,-3.225 0,-1.096 0.056,-2.191 -0.012,-3.281 -0.092,-1.602 1.432,-2.85 2.711,-2.881 z m -23.379,0 c 2.356,0 4.67,-0.024 6.983,0.012 0.777,0.012 1.487,0.324 2.093,0.845 0.521,0.453 0.796,1.01 0.796,1.72 -0.013,2.423 0.006,4.847 -0.019,7.271 -0.006,0.336 -0.135,0.734 -0.337,0.998 -0.795,1.034 -1.737,1.713 -3.182,1.646 -2.087,-0.098 -4.187,-0.025 -6.322,-0.025 -0.012,-4.156 -0.012,-8.281 -0.012,-12.467 z m -21.377,-0.006 c 0.937,0 1.842,-0.019 2.748,0.018 0.153,0.006 0.337,0.232 0.435,0.398 1.199,2.099 2.393,4.21 3.586,6.316 0.104,0.189 0.221,0.373 0.398,0.686 0,-2.534 0,-4.939 0,-7.381 0.789,0 1.523,0 2.288,0 0,4.125 0,8.25 0,12.436 -0.703,0 -1.389,0.024 -2.074,-0.018 -0.153,-0.012 -0.33,-0.245 -0.422,-0.417 -1.451,-2.668 -2.889,-5.349 -4.333,-8.023 -0.086,-0.153 -0.178,-0.3 -0.35,-0.6 0,3.097 0,6.035 0,9.015 -0.783,0 -1.518,0 -2.276,0 0,-4.119 0,-8.232 0,-12.43 z m -21.407,2.381 c 0.012,-1.634 0.808,-2.387 2.447,-2.387 2.167,0 4.34,0 6.506,0 0.178,0 0.355,0 0.563,0 0,0.667 0,1.279 0,1.971 -0.208,0 -0.398,0 -0.594,0 -1.641,0 -3.28,0 -4.921,0 -1.224,0 -1.689,0.459 -1.689,1.659 0,0.416 0,0.826 0,1.285 2.424,0 4.786,0 7.191,0 0,0.667 0,1.291 0,1.977 -2.381,0 -4.762,0 -7.179,0 0,0.912 -0.03,1.769 0.013,2.62 0.024,0.52 0.673,0.991 1.254,0.997 1.769,0 3.538,0 5.3,0 0.196,0 0.392,0 0.618,0 0,0.661 0,1.273 0,1.946 -0.171,0.012 -0.343,0.031 -0.52,0.031 -2.167,0 -4.34,0.006 -6.506,0 -1.506,0 -2.479,-0.937 -2.491,-2.436 -0.01,-2.559 -0.01,-5.111 0.008,-7.663 z m -20.38,-2.344 c 3.476,0 6.94,0 10.459,0 0,0.648 0,1.261 0,1.922 -1.292,0 -2.564,0 -3.874,0 0,3.506 0,6.958 0,10.459 -0.894,0 -1.738,0 -2.644,0 0,-3.452 0,-6.916 0,-10.447 -1.347,0 -2.625,0 -3.936,0 -0.005,-0.673 -0.005,-1.286 -0.005,-1.934 z m -0.055,17.075 c 5.704,0 11.365,0 17.062,0 0,1.175 0,2.332 0,3.55 -4.113,0 -8.244,0 -12.405,0 0,0.906 0,1.744 0,2.638 2.375,0 4.737,0 7.142,0 0,1.236 0,2.423 0,3.678 -2.375,0 -4.749,0 -7.154,0 0,0.985 0,1.903 0,2.876 4.149,0 8.274,0 12.43,0 0,1.322 0,2.595 0,3.898 -5.679,0 -11.358,0 -17.075,0 0,-5.514 0,-11.047 0,-16.64 z M 255.444,159.45 c 1.016,0 2.025,-0.012 3.042,0.018 0.135,0.006 0.3,0.227 0.379,0.379 1.126,2.124 2.234,4.253 3.354,6.377 0.092,0.171 0.189,0.342 0.379,0.501 0,-2.405 0,-4.804 0,-7.24 0.894,0 1.726,0 2.601,0 0,4.119 0,8.237 0,12.43 -0.802,0 -1.598,0.024 -2.393,-0.019 -0.147,-0.006 -0.318,-0.257 -0.41,-0.435 -1.432,-2.638 -2.852,-5.281 -4.278,-7.925 -0.098,-0.177 -0.196,-0.349 -0.386,-0.514 0,2.944 0,5.888 0,8.88 -0.826,0 -1.536,0 -2.289,0 10e-4,-4.147 10e-4,-8.266 10e-4,-12.452 z m -16.132,0.012 c 0.856,0 1.67,0 2.54,0 0,4.137 0,8.256 0,12.417 -0.826,0 -1.658,0 -2.54,0 0,-4.118 0,-8.237 0,-12.417 z m -23.336,-0.018 c 1.016,0 2.013,-0.019 3.011,0.019 0.153,0.006 0.343,0.227 0.435,0.397 1.138,2.136 2.258,4.284 3.384,6.426 0.08,0.153 0.171,0.306 0.349,0.435 0,-2.405 0,-4.811 0,-7.246 0.887,0 1.72,0 2.588,0 0,4.125 0,8.25 0,12.436 -0.795,0 -1.542,0.025 -2.289,-0.018 -0.178,-0.012 -0.398,-0.214 -0.496,-0.392 -1.463,-2.687 -2.907,-5.38 -4.357,-8.072 -0.086,-0.159 -0.171,-0.312 -0.361,-0.459 0,1.475 0,2.956 0,4.431 0,1.475 0,2.95 0,4.468 -0.759,0 -1.493,0 -2.264,0 0,-4.12 0,-8.245 0,-12.425 z M 104.653,349.757 c -41.487,0 -75.239,-33.752 -75.239,-75.239 0,-41.487 33.752,-75.239 75.239,-75.239 41.488,0 75.233,33.752 75.233,75.239 0,41.487 -33.745,75.239 -75.233,75.239 z m 125.301,42.381 c 4.872,0 8.837,3.96 8.837,8.838 v 20.783 c 0,4.872 -3.965,8.831 -8.837,8.831 h -21.769 v 21.77 c 0,4.871 -3.959,8.831 -8.831,8.831 H 178.57 c -4.872,0 -8.831,-3.96 -8.831,-8.831 V 430.596 H 147.97 c -4.871,0 -8.831,-3.959 -8.831,-8.831 v -20.789 c 0,-4.878 3.96,-8.838 8.831,-8.838 h 21.769 V 370.37 c 0,-4.871 3.959,-8.831 8.831,-8.831 h 20.784 c 4.872,0 8.831,3.96 8.831,8.831 v 21.769 h 21.769 z m -2.252,-198.624 c -3.623,-0.043 -7.252,-0.019 -10.881,-0.019 -1.695,0 -3.715,-1.383 -4.302,-2.962 -0.098,-0.263 -0.128,-0.569 -0.128,-0.857 -0.006,-3.152 -0.012,-6.304 0,-9.456 0,-0.483 0.061,-0.991 0.196,-1.45 0.355,-1.206 1.377,-2.014 2.631,-2.014 5.447,-0.019 10.9,-0.006 16.347,-0.006 0.049,0 0.104,0.024 0.19,0.042 0,1.151 0,2.308 0,3.513 -4.89,0 -9.768,0 -14.688,0 0,3.078 0,6.059 0,9.07 3.568,0 7.105,0 10.679,0 0,-0.82 0,-1.616 0,-2.485 -2.032,0 -4.063,0 -6.12,0 0,-1.304 0,-2.534 0,-3.788 3.464,0 6.897,0 10.404,0 0.006,0.189 0.024,0.379 0.024,0.569 0,1.971 -0.012,3.935 0.006,5.906 0.006,0.618 -0.141,1.163 -0.526,1.622 -0.392,0.478 -0.808,0.937 -1.261,1.358 -0.711,0.669 -1.549,0.969 -2.571,0.957 z m 42.393,-8.568 c -0.098,0.153 -0.202,0.3 -0.294,0.459 -1.438,2.473 -2.882,4.939 -4.302,7.417 -0.19,0.331 -0.398,0.447 -0.771,0.435 -0.856,-0.024 -1.713,-0.031 -2.57,0 -0.397,0.012 -0.612,-0.11 -0.814,-0.459 -1.377,-2.423 -2.778,-4.829 -4.167,-7.24 -0.11,-0.19 -0.22,-0.374 -0.441,-0.557 0,2.724 0,5.453 0,8.25 -0.288,0 -0.477,0 -0.667,0 -2.025,0 -4.045,-0.012 -6.071,0.012 -0.417,0.006 -0.643,-0.116 -0.857,-0.483 -2.007,-3.464 -4.039,-6.922 -6.065,-10.374 -0.098,-0.166 -0.208,-0.331 -0.355,-0.569 -1.481,2.497 -2.925,4.933 -4.418,7.454 1.665,0 3.25,0 4.859,0 0,1.34 0,2.607 0,3.923 -3.997,0 -7.987,0 -12.038,0 0.085,-0.165 0.146,-0.312 0.226,-0.447 3.091,-5.238 6.188,-10.471 9.272,-15.716 0.22,-0.374 0.447,-0.539 0.894,-0.521 0.894,0.037 1.787,0.037 2.681,0 0.459,-0.018 0.716,0.129 0.948,0.526 2.246,3.831 4.523,7.65 6.787,11.469 0.11,0.184 0.227,0.373 0.429,0.709 0,-4.314 0,-8.464 0,-12.692 0.899,0 1.75,0.098 2.558,-0.025 1.353,-0.202 2.056,0.355 2.699,1.53 1.738,3.158 3.635,6.224 5.471,9.333 0.11,0.184 0.227,0.367 0.374,0.593 0.955,-1.622 1.879,-3.182 2.803,-4.749 1.23,-2.087 2.467,-4.167 3.685,-6.261 0.177,-0.306 0.361,-0.435 0.722,-0.428 1.236,0.024 2.472,0.012 3.746,0.012 0,5.582 0,11.108 0,16.695 -1.408,0 -2.772,0 -4.192,0 0,-2.748 0,-5.496 0,-8.237 -0.046,-0.028 -0.089,-0.047 -0.132,-0.059 z m 22.797,106.721 c -10.918,0 -19.804,-8.88 -19.804,-19.798 0,-10.918 8.886,-19.804 19.804,-19.804 10.924,0 19.804,8.886 19.804,19.804 0,10.918 -8.88,19.798 -19.804,19.798 z m 7.938,-111.17 c 0,2.925 0,5.845 0,8.794 3.151,0 6.291,0 9.474,0 0,-1.065 0,-2.099 0,-3.176 1.432,0 2.827,0 4.247,0 0.012,0.086 0.037,0.171 0.037,0.257 0,1.566 0.018,3.133 -0.007,4.7 -0.019,1.444 -0.789,2.179 -2.215,2.172 -4.211,0 -8.422,0 -12.632,0 -1.646,0 -3.018,-1.236 -3.201,-2.882 -0.03,-0.251 -0.036,-0.508 -0.036,-0.765 0,-3.666 0,-7.326 0,-10.992 0,-1.536 0.526,-2.081 2.056,-2.081 4.468,-0.006 8.93,-0.006 13.396,0 1.738,0.006 2.663,0.973 2.639,2.699 -0.013,1.096 -0.013,2.185 -0.019,3.28 0,0.178 0,0.355 0,0.563 -1.549,0 -3.036,0 -4.59,0 0,-0.851 0,-1.695 0,-2.576 -3.072,0.007 -6.089,0.007 -9.149,0.007 z m 34.131,-3.305 c 0,4.266 0,8.531 0,12.797 0,1.964 -0.991,3.054 -2.98,3.256 -0.38,0.037 -0.765,0.061 -1.145,0.061 -3.733,0.006 -7.473,0.019 -11.206,-0.006 -0.557,-0.006 -1.132,-0.11 -1.658,-0.288 -1.071,-0.367 -1.701,-1.188 -1.714,-2.301 -0.036,-4.7 -0.012,-9.4 -0.012,-14.162 1.542,0 3.029,0 4.577,0 0,4.253 0,8.488 0,12.76 3.188,0 6.311,0 9.499,0 0,-4.223 0,-8.458 0,-12.742 1.561,0 3.06,0 4.639,0 0,0.203 0,0.411 0,0.625 z m 18.519,7.632 c 0.765,0.306 1.218,0.948 1.218,1.769 0.006,1.328 0,2.662 0,3.99 0,1.089 -0.49,1.916 -1.524,2.215 -0.967,0.282 -1.989,0.483 -2.992,0.496 -4.37,0.055 -8.746,0.024 -13.115,0.024 -0.141,0 -0.282,-0.024 -0.44,-0.042 0,-5.582 0,-11.126 0,-16.745 0.22,0 0.416,0 0.605,0 4.994,0 9.981,0 14.976,0 1.695,0 2.484,0.777 2.491,2.467 0.006,1.31 0,2.625 0,3.935 0,0.924 -0.325,1.303 -1.255,1.457 -0.129,0.024 -0.257,0.061 -0.38,0.085 -0.006,0.049 -0.018,0.104 -0.024,0.153 0.147,0.061 0.293,0.134 0.44,0.196 z m 2.901,8.451 c 0,-5.576 0,-11.139 0,-16.75 5.581,0 11.114,0 16.689,0 0,1.187 0,2.356 0,3.592 -4.125,0 -8.256,0 -12.424,0 0,0.9 0,1.744 0,2.632 2.381,0 4.743,0 7.148,0 0,1.224 0,2.393 0,3.641 -2.362,0 -4.737,0 -7.148,0 0,0.992 0,1.916 0,2.913 4.235,0 8.488,0 12.767,0 0,1.365 0,2.65 0,3.972 -5.674,0 -11.328,0 -17.032,0 z m 89.315,224.616 -18.66,33.336 c -0.41,0.734 -1.102,1.267 -1.915,1.469 l -36.176,9.205 c -0.251,0.066 -0.502,0.098 -0.753,0.098 -0.538,0 -1.071,-0.141 -1.548,-0.416 L 354.44,442.709 c -0.722,-0.423 -1.242,-1.133 -1.432,-1.946 l -8.69,-37.197 c -0.189,-0.809 -0.043,-1.659 0.404,-2.351 l 19.283,-29.951 c 0.423,-0.655 1.084,-1.132 1.843,-1.315 l 34.994,-8.636 c 0.771,-0.184 1.579,-0.079 2.258,0.318 l 31.23,17.999 c 0.68,0.392 1.182,1.028 1.401,1.774 l 10.227,34.113 c 0.233,0.796 0.142,1.652 -0.262,2.374 z M 556.009,303.907 c -1.848,0.502 -3.751,0.753 -5.648,0.753 -2.754,0 -5.392,-0.576 -7.852,-1.537 -10.074,25.576 -34.964,43.753 -64.07,43.753 -17.583,0 -33.599,-6.678 -45.784,-17.559 -5.263,7.454 -13.904,12.362 -23.702,12.362 -16.017,0 -29.046,-13.029 -29.046,-29.039 0,-16.017 13.029,-29.046 29.046,-29.046 0.306,0 0.587,0.08 0.887,0.092 -0.153,-1.879 -0.287,-3.77 -0.287,-5.691 0,-16.481 5.832,-31.622 15.526,-43.489 -2.461,-2.564 -4.321,-5.741 -5.294,-9.339 -3.109,-11.53 3.745,-23.439 15.275,-26.555 l 1.107,-0.336 c 18.74,-5.649 18.74,-5.649 35.937,-9.682 l 0.796,-0.184 c 1.744,-0.41 3.525,-0.618 5.3,-0.618 10.086,0 18.593,6.396 21.163,15.918 0.79,2.931 0.918,5.924 0.483,8.843 10.074,3.305 19.119,8.862 26.555,16.089 2.326,-1.94 5.056,-3.452 8.158,-4.29 1.849,-0.502 3.752,-0.752 5.648,-0.752 9.762,0 18.36,6.591 20.906,16.028 l 0.281,0.931 c 5.691,18.855 5.691,18.855 9.707,35.973 l 0.22,0.93 c 2.748,11.775 -3.971,23.39 -15.312,26.445 z"
       id="path4-5"
       inkscape:label="controller-outline"
       style="display:none;fill:#000000"
       transform="translate(0.196215)" /></g><g
     inkscape:label="Unpressed"
     inkscape:groupmode="layer"
     id="layer1"
     style="display:inline"><g
       inkscape:groupmode="layer"
       id="layer2"
       inkscape:label="D-Pad"><path
         style="fill:#323232;fill-opacity:1;stroke-width:0.8"
         d="m 483.05698,553.88678 c -6.01448,-1.74798 -7.54533,-6.31842 -7.55146,-22.54538 -0.005,-11.8 -0.005,-11.8 -13.40446,-11.80299 -20.28399,-0.005 -21,-0.74089 -21,-21.59701 0,-20.70767 0.29729,-21.01697 20.76057,-21.6 14.03943,-0.4 14.03943,-0.4 14.43943,-14.4 0.57999,-20.29988 0.26212,-20 21.2,-20 22.5421,0 21.55053,-1.45312 21.97242,32.2 0.0276,2.2 0.0276,2.2 12.90668,2.2 20.60428,0 21.1209,0.52834 21.1209,21.6 0,21.07855 0.0596,21.01544 -20.4,21.6 -14,0.4 -14,0.4 -14.4,14.4 -0.58216,20.37552 -1.05762,20.84539 -20.9743,20.72785 -6.72414,-0.0397 -13.32554,-0.39179 -14.66978,-0.78247 z"
         id="path33"
         inkscape:label="D-pad" /></g><g
       inkscape:groupmode="layer"
       id="layer4"
       inkscape:label="Buttons"><path
         d="m 479.399,245.822 c -18.69,0 -33.899,15.202 -33.899,33.898 0,18.69 15.202,33.893 33.899,33.893 18.696,0 33.898,-15.202 33.898,-33.893 10e-4,-18.697 -15.207,-33.898 -33.898,-33.898 z"
         id="path9"
         style="display:inline;fill:#323232;fill-opacity:1"
         transform="matrix(1.3656958,0,0,1.3656958,239.99972,-63.830685)"
         inkscape:label="A" /><path
         d="m 417.116,291.281 c -2.032,-0.783 -4.205,-1.23 -6.47,-1.401 -0.568,-0.043 -1.113,-0.171 -1.694,-0.171 -12.639,0 -22.926,10.288 -22.926,22.925 0,12.637 10.281,22.92 22.926,22.92 8.09,0 15.171,-4.235 19.253,-10.575 1.199,-1.867 2.075,-3.93 2.699,-6.114 0.569,-1.995 0.967,-4.058 0.967,-6.23 0.006,-9.757 -6.144,-18.055 -14.755,-21.354 z"
         id="path13"
         style="display:inline;fill:#323232;fill-opacity:1"
         transform="matrix(1.3656958,0,0,1.3656958,239.99972,-63.830685)"
         inkscape:label="B" /><path
         d="m 429.258,229.848 c 1.407,1.53 3.097,2.754 4.976,3.636 3.207,1.499 6.892,2.013 10.508,1.04 0.508,-0.146 2.234,-1.102 3.623,-1.873 3.771,-2.081 8.936,-4.939 14.395,-6.408 6.757,-1.817 15.924,-2.014 19.554,-2.014 l 0.562,0.006 c 3.838,-1.145 7.038,-3.666 9.039,-7.148 0.062,-0.11 0.092,-0.227 0.153,-0.337 1.004,-1.836 1.604,-3.819 1.812,-5.845 0.189,-1.86 0.073,-3.757 -0.429,-5.612 -1.836,-6.812 -7.962,-11.383 -15.251,-11.383 -1.303,0 -2.613,0.147 -3.904,0.453 l -0.796,0.184 c -17.014,3.984 -17.014,3.984 -35.562,9.578 l -1.193,0.361 c -8.36,2.259 -13.274,10.808 -11.047,19.083 0.647,2.418 1.932,4.517 3.56,6.279 z"
         id="path14"
         style="display:inline;fill:#323232;fill-opacity:1"
         transform="matrix(1.3656958,0,0,1.3656958,239.99972,-63.830685)"
         inkscape:label="Y" /><path
         d="m 565.134,277.915 c -3.966,-16.928 -3.966,-16.928 -9.602,-35.594 l -0.307,-1.022 c -2.215,-8.201 -10.912,-13.268 -19.076,-11.053 -2.104,0.569 -3.983,1.555 -5.587,2.828 -1.641,1.304 -2.969,2.919 -3.96,4.725 -1.86,3.396 -2.491,7.479 -1.407,11.505 0.146,0.508 1.102,2.228 1.866,3.617 2.081,3.77 4.938,8.935 6.407,14.394 1.995,7.405 2.032,17.785 2.014,20.123 0.704,2.375 2.032,4.431 3.685,6.144 1.523,1.579 3.348,2.821 5.367,3.666 3.06,1.273 6.506,1.665 9.884,0.759 8.134,-2.19 12.938,-10.599 10.937,-19.149 z"
         id="path15"
         inkscape:label="X"
         style="display:inline;fill:#323232;fill-opacity:1"
         transform="matrix(1.3656958,0,0,1.3656958,239.99972,-63.830685)" /><path
         d="m 661.7055,309.96999 c 0,-11.96316 -9.72818,-21.69134 -21.69134,-21.69134 -11.96315,0 -21.69133,9.72818 -21.69133,21.69134 0,11.96315 9.72818,21.69787 21.69133,21.69787 11.96425,0 21.69134,-9.73472 21.69134,-21.69787 z"
         id="path10"
         inkscape:label="start"
         style="display:inline;fill:#323232;fill-opacity:1;stroke-width:1.09023" /><rect
         style="font-variation-settings:normal;opacity:1;vector-effect:none;fill:#323232;fill-opacity:1;stroke-width:1.6889;stroke-linecap:butt;stroke-linejoin:miter;stroke-miterlimit:4;stroke-dasharray:none;stroke-dashoffset:0;stroke-opacity:1;-inkscape-stroke:none"
         id="rect5"
         width="106.75"
         height="22.75"
         x="849.25"
         y="135"
         ry="11.375"
         inkscape:label="Z-right" /><rect
         style="font-variation-settings:normal;display:inline;vector-effect:none;fill:#323232;fill-opacity:1;stroke-width:1.6889;stroke-linecap:butt;stroke-linejoin:miter;stroke-miterlimit:4;stroke-dasharray:none;stroke-dashoffset:0;stroke-opacity:1;-inkscape-stroke:none"
         id="rect5-9"
         width="106.75"
         height="22.75"
         x="335.25"
         y="135"
         ry="11.375"
         inkscape:label="Z-left" /><path
         id="rect5-2"
         style="display:inline;vector-effect:none;fill:#323232;stroke-width:1.6889"
         d="m 905.5,74.375 c 44.00331,0 64.9114,49.375 40.875,49.375 h -87.5 c -5.33225,0 -9.625,-5.07325 -9.625,-11.375 0,-6.30175 9.37933,-38 56.25,-38 z"
         sodipodi:nodetypes="sssss"
         inkscape:label="R-bumper" /><path
         id="rect5-2-4"
         style="display:inline;vector-effect:none;fill:#323232;stroke-width:1.6889"
         d="m 391.5,74.375 c 44.00331,0 64.9114,49.375 40.875,49.375 h -87.5 c -5.33225,0 -9.625,-5.07325 -9.625,-11.375 0,-6.30175 9.37933,-38 56.25,-38 z"
         sodipodi:nodetypes="sssss"
         inkscape:label="L-bumper" /></g><g
       style="display:inline;fill:#000000"
       id="g1"
       transform="matrix(1.3627947,0,0,1.3627947,242.99354,80.071131)"
       inkscape:label="joystick"><path
         d="m 104.653,205.399 c -38.115,0 -69.119,31.004 -69.119,69.119 0,38.115 31.004,69.119 69.119,69.119 38.109,0 69.113,-31.004 69.113,-69.119 0,-38.115 -31.004,-69.119 -69.113,-69.119 z m 0,110.295 c -22.699,0 -41.169,-18.471 -41.169,-41.176 0,-22.705 18.47,-41.175 41.169,-41.175 22.699,0 41.169,18.47 41.169,41.175 0,22.705 -18.464,41.176 -41.169,41.176 z"
         id="path1-7"
         style="display:inline;fill:#323232;fill-opacity:1"
         transform="matrix(1.0021288,0,0,1.0021288,-2.1968239,-105.59317)"
         inkscape:label="joy-range" /></g><g
       inkscape:groupmode="layer"
       id="layer10"
       inkscape:label="C-stick"><path
         d="m 781.10351,437.59741 -43.05608,15.83479 -20.14022,40.48836 16.20953,45.81487 43.35008,19.34322 44.43288,-16.70204 18.9239,-44.77658 -17.68299,-41.60751 z m 3.18555,102.39293 c -22.99384,2.55073 -43.76728,-14.07408 -46.31816,-37.06928 -2.55057,-22.99249 14.07273,-43.76713 37.06793,-46.31801 22.9952,-2.55088 43.76728,14.07409 46.31801,37.06793 2.55073,22.99384 -14.07258,43.76848 -37.06778,46.31936 z"
         id="path10-1"
         style="display:inline;fill:#323232;fill-opacity:1;stroke-width:1.3657"
         inkscape:label="C-range" /></g></g><g
     inkscape:groupmode="layer"
     id="layer3"
     inkscape:label="Pressed"
     style="display:inline"><g
       inkscape:groupmode="layer"
       id="layer5"
       inkscape:label="Buttons Pressed"
       style="display:inline"><path
         d="m 807.42243,339.80221 c -2.22008,-0.85547 -4.5942,-1.34384 -7.06884,-1.53067 -0.62058,-0.047 -1.21602,-0.18683 -1.8508,-0.18683 -13.80882,0 -25.04795,11.24023 -25.04795,25.04687 0,13.80663 11.23258,25.04139 25.04795,25.04139 8.83879,0 16.57518,-4.62698 21.035,-11.55379 1.30997,-2.0398 2.26705,-4.29374 2.9488,-6.67988 0.62167,-2.17966 1.05651,-4.4336 1.05651,-6.80664 0.006,-10.66007 -6.71267,-19.72611 -16.12067,-23.33045 z"
         id="path13-1"
         style="display:inline;fill:#ffffff;fill-opacity:1;stroke-width:1.09256"
         inkscape:label="B-in" /><path
         d="m 894.71278,281.14558 c -20.41988,0 -37.03657,16.60905 -37.03657,37.03548 0,20.41989 16.60905,37.03002 37.03657,37.03002 20.42644,0 37.03549,-16.60905 37.03549,-37.03002 8e-4,-20.42753 -16.61451,-37.03548 -37.03549,-37.03548 z"
         id="path9-4"
         style="display:inline;fill:#ffffff;fill-opacity:1;stroke-width:1.09256"
         inkscape:label="A-in" /><path
         d="m 834.51329,245.87014 c 1.53722,1.67162 3.38365,3.00891 5.43656,3.97254 3.50383,1.63774 7.5299,2.19932 11.48058,1.13626 0.55502,-0.15951 2.44078,-1.204 3.95834,-2.04636 4.12003,-2.27361 9.76309,-5.39613 15.72735,-7.0011 7.3824,-1.98518 17.39787,-2.20041 21.36385,-2.20041 l 0.61402,0.006 c 4.19324,-1.25098 7.68941,-4.00531 9.87562,-7.80959 0.0678,-0.12019 0.10051,-0.24801 0.16716,-0.36819 1.09693,-2.00594 1.75246,-4.17248 1.97971,-6.386 0.2065,-2.03216 0.0798,-4.10473 -0.4687,-6.13143 -2.00594,-7.44249 -8.69894,-12.43657 -16.66259,-12.43657 -1.4236,0 -2.85484,0.1606 -4.26533,0.49493 l -0.86968,0.20103 c -18.58876,4.35275 -18.58876,4.35275 -38.8535,10.46451 l -1.30342,0.39441 c -9.13377,2.46808 -14.50259,11.80836 -12.06947,20.84926 0.70688,2.6418 2.11081,4.93508 3.8895,6.86016 z"
         id="path14-2"
         style="display:inline;fill:#ffffff;fill-opacity:1;stroke-width:1.09256"
         inkscape:label="Y-in" /><path
         d="m 1006.3661,311.94676 c -4.3332,-18.4948 -4.3332,-18.4948 -10.49081,-38.88846 l -0.33542,-1.11659 c -2.42001,-8.96006 -11.92197,-14.49605 -20.8416,-12.07603 -2.29875,0.62166 -4.35166,1.69893 -6.10412,3.08975 -1.79288,1.4247 -3.2438,3.18917 -4.32652,5.16233 -2.03216,3.71032 -2.72156,8.17123 -1.53723,12.56986 0.15951,0.55502 1.20399,2.43422 2.03871,3.95178 2.27361,4.11894 5.39504,9.76199 7.00001,15.72626 2.17965,8.09039 2.22007,19.43112 2.20041,21.98552 0.76916,2.59482 2.22007,4.84112 4.02607,6.71267 1.66396,1.72514 3.65788,3.0821 5.86375,4.00531 3.34323,1.39082 7.10817,1.8191 10.79883,0.82925 8.88682,-2.3927 14.13552,-11.58001 11.94932,-20.92137 z"
         id="path15-7"
         inkscape:label="X-in"
         style="display:inline;fill:#ffffff;fill-opacity:1;stroke-width:1.09256" /><path
         d="m 657.35696,309.99972 c 0,-9.57053 -7.78253,-17.35307 -17.35306,-17.35307 -9.57052,0 -17.35307,7.78254 -17.35307,17.35307 0,9.57052 7.78255,17.3583 17.35307,17.3583 9.5714,0 17.35306,-7.78778 17.35306,-17.3583 z"
         id="path10-8"
         inkscape:label="start-in"
         style="display:inline;fill:#ffffff;stroke-width:0.872184" /><rect
         style="font-variation-settings:normal;display:inline;vector-effect:none;fill:#ffffff;fill-opacity:1;stroke-width:1.35112;stroke-linecap:butt;stroke-linejoin:miter;stroke-miterlimit:4;stroke-dasharray:none;stroke-dashoffset:0;stroke-opacity:1;-inkscape-stroke:none"
         id="rect5-8"
         width="85.400002"
         height="18.200001"
         x="859.92499"
         y="137.27499"
         ry="9.1000004"
         inkscape:label="Z-right-in" /><rect
         style="font-variation-settings:normal;display:inline;vector-effect:none;fill:#ffffff;fill-opacity:1;stroke-width:1.35112;stroke-linecap:butt;stroke-linejoin:miter;stroke-miterlimit:4;stroke-dasharray:none;stroke-dashoffset:0;stroke-opacity:1;-inkscape-stroke:none"
         id="rect5-9-9"
         width="85.400002"
         height="18.200001"
         x="345.92499"
         y="137.27499"
         ry="9.1000004"
         inkscape:label="Z-left-in" /><path
         id="rect5-2-3"
         style="display:inline;vector-effect:none;fill:#ffffff;stroke-width:1.35112"
         d="m 904.97308,79.3125 c 35.20265,0 51.92912,39.5 32.7,39.5 h -70 c -4.2658,0 -7.7,-4.0586 -7.7,-9.1 0,-5.0414 7.50346,-30.4 45,-30.4 z"
         sodipodi:nodetypes="sssss"
         inkscape:label="R-bumper-in" /><path
         id="rect5-2-4-1"
         style="display:inline;vector-effect:none;fill:#ffffff;stroke-width:1.35112"
         d="m 390.97308,79.3125 c 35.20265,0 51.92912,39.5 32.7,39.5 h -70 c -4.2658,0 -7.7,-4.0586 -7.7,-9.1 0,-5.0414 7.50346,-30.4 45,-30.4 z"
         sodipodi:nodetypes="sssss"
         inkscape:label="L-bumper-in" /></g><g
       inkscape:groupmode="layer"
       id="layer6"
       inkscape:label="D-Pad Pressed"
       style="display:inline"><path
         sodipodi:type="star"
         style="display:inline;fill:#ffffff;fill-opacity:1"
         id="path36"
         inkscape:flatsided="true"
         sodipodi:sides="3"
         sodipodi:cx="442.64886"
         sodipodi:cy="362.92255"
         sodipodi:r1="25.456457"
         sodipodi:r2="12.728229"
         sodipodi:arg1="-1.5707963"
         sodipodi:arg2="-0.52359878"
         inkscape:rounded="0.01"
         inkscape:randomized="0"
         d="m 442.64887,337.46609 c 0.44091,0 22.26639,37.80284 22.04593,38.18469 -0.22046,0.38184 -43.87141,0.38184 -44.09187,-10e-6 -0.22046,-0.38184 21.60502,-38.18468 22.04594,-38.18468 z"
         inkscape:transform-center-y="-4.1992158"
         transform="matrix(0.67812705,0,0,0.6750145,197.49947,218.086)"
         inkscape:label="up"
         inkscape:transform-center-x="-2.8852977e-06" /><path
         sodipodi:type="star"
         style="display:inline;fill:#ffffff;fill-opacity:1"
         id="path36-6"
         inkscape:flatsided="true"
         sodipodi:sides="3"
         sodipodi:cx="442.64886"
         sodipodi:cy="362.92255"
         sodipodi:r1="25.456457"
         sodipodi:r2="12.728229"
         sodipodi:arg1="-1.5707963"
         sodipodi:arg2="-0.52359878"
         inkscape:rounded="0.01"
         inkscape:randomized="0"
         d="m 442.64887,337.46609 c 0.44091,0 22.26639,37.80284 22.04593,38.18469 -0.22046,0.38184 -43.87141,0.38184 -44.09187,-10e-6 -0.22046,-0.38184 21.60502,-38.18468 22.04594,-38.18468 z"
         transform="matrix(0,0.67812705,-0.6750145,0,778.08362,197.45941)"
         inkscape:transform-center-x="-4.1992155"
         inkscape:label="right"
         inkscape:transform-center-y="-1.4213617e-06" /><path
         sodipodi:type="star"
         style="display:inline;fill:#ffffff;fill-opacity:1"
         id="path36-6-7-1"
         inkscape:flatsided="true"
         sodipodi:sides="3"
         sodipodi:cx="442.64886"
         sodipodi:cy="362.92255"
         sodipodi:r1="25.456457"
         sodipodi:r2="12.728229"
         sodipodi:arg1="-1.5707963"
         sodipodi:arg2="-0.52359878"
         inkscape:rounded="0.01"
         inkscape:randomized="0"
         d="m 442.64887,337.46609 c 0.44091,0 22.26639,37.80284 22.04593,38.18469 -0.22046,0.38184 -43.87141,0.38184 -44.09187,-10e-6 -0.22046,-0.38184 21.60502,-38.18468 22.04594,-38.18468 z"
         transform="matrix(0,-0.67812705,0.6750145,0,216.52606,797.80375)"
         inkscape:transform-center-y="2.9697782e-06"
         inkscape:transform-center-x="4.1992171"
         inkscape:label="left" /><path
         sodipodi:type="star"
         style="display:inline;fill:#ffffff;fill-opacity:1"
         id="path36-6-7"
         inkscape:flatsided="true"
         sodipodi:sides="3"
         sodipodi:cx="442.64886"
         sodipodi:cy="362.92255"
         sodipodi:r1="25.456457"
         sodipodi:r2="12.728229"
         sodipodi:arg1="-1.5707963"
         sodipodi:arg2="-0.52359878"
         inkscape:rounded="0.01"
         inkscape:randomized="0"
         d="m 442.64887,337.46609 c 0.44091,0 22.26639,37.80284 22.04593,38.18469 -0.22046,0.38184 -43.87141,0.38184 -44.09187,-10e-6 -0.22046,-0.38184 21.60502,-38.18468 22.04594,-38.18468 z"
         transform="matrix(-0.67812705,0,0,-0.6750145,797.84378,779.64354)"
         inkscape:transform-center-y="4.1992167"
         inkscape:label="down" /></g><g
       inkscape:groupmode="layer"
       id="layer9"
       inkscape:label="joystick"
       style="display:inline"><path
         d="m 104.653,239.469 c -19.327,0 -35.049,15.722 -35.049,35.055 0,19.333 15.722,35.055 35.049,35.055 19.327,0 35.049,-15.723 35.049,-35.055 0,-19.333 -15.722,-35.055 -35.049,-35.055 z"
         id="path2"
         style="display:inline;fill:#ffffff"
         transform="matrix(1.3656958,0,0,1.3656958,239.99972,-63.830685)"
         inkscape:label="joy-stick" /></g><g
       inkscape:groupmode="layer"
       id="layer11"
       inkscape:label="C-stick"><path
         d="m 395.157,387.016 c -13.562,0 -24.597,11.034 -24.597,24.597 0,13.562 11.035,24.596 24.597,24.596 13.562,0 24.597,-11.034 24.597,-24.596 0,-13.563 -11.035,-24.597 -24.597,-24.597 z"
         id="path12"
         style="display:inline;fill:#f2f2f2"
         transform="matrix(1.3656958,0,0,1.3656958,239.99972,-63.830685)"
         inkscape:label="C-stick" /></g></g></svg>
